<svg xmlns="http://w3.org" width="64" height="64" viewBox="0 -5 70 70" fill="none">
<defs>
<linearGradient id="cloudRear1" x1="27.7" y1="6.2" x2="32" y2="40.5" gradientUnits="userSpaceOnUse">
<stop stop-color="#455A64"/>
<stop offset="1" stop-color="#263238"/>
</linearGradient>
<linearGradient id="cloudFront1" x1="27.7" y1="6.2" x2="32" y2="40.5" gradientUnits="userSpaceOnUse">
<stop stop-color="#78909C"/>
<stop offset="1" stop-color="#455A64"/>
</linearGradient>
<radialGradient id="rain1" cx="0" cy="0" r="1" gradientUnits="userSpaceOnUse" gradientTransform="translate(2 -0.3) rotate(89) scale(15 4.5)">
<stop offset="0.2" stop-color="#B7E9FE"/>
<stop offset="1" stop-color="#5ECFFF"/>
</radialGradient>
</defs>
<path d="M16.7 13.6C17.8 3.9 25.8 -3.5 35.3 -3.5C43.7 -3.5 51 2.1 53.3 10.4C55 10.3 67 15.9 67 22.9C67 29.8 61.6 35.4 54.9 35.4H17.5C11.7 35.4 7 30.5 7 24.5C7 18.8 11.2 14 16.7 13.6Z" fill="url(#cloudRear1)" opacity="0.6"/>
<rect width="3.5" height="10" rx="1.7" transform="matrix(0.98 0.15 -0.15 0.98 12 44)" fill="url(#rain1)"/>
<rect width="3.5" height="10" rx="1.7" transform="matrix(0.98 0.15 -0.15 0.98 24 48)" fill="url(#rain1)"/>
<rect width="3.5" height="10" rx="1.7" transform="matrix(0.98 0.15 -0.15 0.98 40 48)" fill="url(#rain1)"/>
<rect width="3.5" height="10" rx="1.7" transform="matrix(0.98 0.15 -0.15 0.98 52 44)" fill="url(#rain1)"/>
<path d="M32 30L26 44H34L28 60L42 40H34L40 30H32Z" fill="#FFD700" stroke="#F1C40F" stroke-width="1" stroke-linejoin="round"/>
<path d="M11.7 18.6C12.8 8.9 20.8 1.4 30.3 1.4C38.7 1.4 46 7.1 48.3 15.4C48.5 15.4 49.9 15.3 49.9 15.3C56.6 15.3 62 20.9 62 27.9C62 34.8 56.6 40.4 49.9 40.4H12.5C6.7 40.4 2 35.5 2 29.5C2 23.8 6.2 19 11.7 18.6Z" fill="url(#cloudFront1)"/>
</svg>