<svg xmlns="http://w3.org" width="64" height="64" viewBox="0 0 64 64" fill="none">
  <defs>
    <linearGradient id="moon_grad_1" x1="10" y1="20" x2="30" y2="40" gradientUnits="userSpaceOnUse">
      <stop offset="0%" stop-color="#F5DEB3"/>
      <stop offset="100%" stop-color="#FFD700"/>
    </linearGradient>
    <linearGradient id="cloud_grad_1" x1="32.5" y1="22.9" x2="36" y2="50.9" gradientUnits="userSpaceOnUse">
      <stop stop-color="#EEFAFE"/>
      <stop offset="1" stop-color="#BACFDB"/>
    </linearGradient>
    <mask id="moon_mask_1">
      <circle cx="20.5" cy="30.5" r="12.5" fill="white" />
      <circle cx="28" cy="24" r="12.5" fill="black" />
    </mask>
  </defs>
  <circle cx="20.5" cy="30.5" r="12.5" fill="url(#moon_grad_1)" mask="url(#moon_mask_1)"/>
  <path d="M19.451 33.0625C20.356 25.1285 26.9086 19.0118 34.6541 19.0118C41.5057 19.0118 47.4522 23.6872 49.3536 30.4726C49.3951 30.4654 49.4408 30.4683 49.4837 30.4625C49.8725 30.415 50.2656 30.3804 50.6669 30.3804C56.1013 30.3804 60.52 34.9851 60.52 40.6435C60.52 46.3018 56.1013 50.9051 50.6669 50.9051H20.0986C15.3686 50.9051 11.52 46.897 11.52 41.9694C11.52 37.2825 15.0032 33.4257 19.451 33.0625Z" fill="url(#cloud_grad_1)"/>
</svg>