<svg width="53" height="42" viewBox="0 0 53 42" fill="none" xmlns="http://www.w3.org/2000/svg">
<path d="M6.625 18H20.9792C22.0711 18 23.1385 17.6701 24.0463 17.052C24.9542 16.4339 25.6619 15.5554 26.0798 14.5276C26.4976 13.4998 26.6069 12.3688 26.394 11.2776C26.1809 10.1865 25.6551 9.18421 24.8831 8.39752C24.1108 7.61085 23.1272 7.07513 22.0562 6.85809C20.9853 6.64103 19.8752 6.75243 18.8664 7.17818C17.8576 7.60392 16.9954 8.32489 16.3888 9.24993C15.7821 10.175 15.4583 11.2625 15.4583 12.375V13.1783" stroke="#B4B4B4" stroke-width="1.5" stroke-linecap="round"/>
<path d="M4.41667 24.75H40.8542C42.3828 24.75 43.8772 24.2881 45.1483 23.4227C46.4194 22.5576 47.41 21.3276 47.995 19.8886C48.58 18.4497 48.7331 16.8663 48.4347 15.3387C48.1366 13.8111 47.4005 12.4079 46.3196 11.3065C45.2386 10.2052 43.8613 9.45517 42.362 9.15131C40.8628 8.84745 39.3086 9.00342 37.8963 9.59944C36.4841 10.1955 35.2768 11.2048 34.4277 12.4999C33.5784 13.7949 33.125 15.3175 33.125 16.875V18" stroke="#B4B4B4" stroke-width="1.5" stroke-linecap="round"/>
<path d="M5.59446 36.8182L5.57173 35.1591H5.84446L9.66264 31.2727H11.3217L7.25355 35.3864H7.13991L5.59446 36.8182ZM4.34446 40V28.3636H5.68537V40H4.34446ZM9.88991 40L6.48082 35.6818L7.43537 34.75L11.5945 40H9.88991ZM13.0476 40V31.2727H14.343V32.6364H14.4567C14.6385 32.1705 14.9321 31.8087 15.3374 31.5511C15.7427 31.2898 16.2294 31.1591 16.7976 31.1591C17.3733 31.1591 17.8525 31.2898 18.2351 31.5511C18.6214 31.8087 18.9226 32.1705 19.1385 32.6364H19.2294C19.4529 32.1856 19.7881 31.8277 20.2351 31.5625C20.6821 31.2936 21.218 31.1591 21.843 31.1591C22.6233 31.1591 23.2616 31.4034 23.7578 31.892C24.254 32.3769 24.5021 33.1326 24.5021 34.1591V40H23.1612V34.1591C23.1612 33.5152 22.9851 33.0549 22.6328 32.7784C22.2805 32.5019 21.8658 32.3636 21.3885 32.3636C20.7749 32.3636 20.2995 32.5492 19.9624 32.9205C19.6252 33.2879 19.4567 33.7538 19.4567 34.3182V40H18.093V34.0227C18.093 33.5265 17.9321 33.1269 17.6101 32.8239C17.2881 32.517 16.8733 32.3636 16.3658 32.3636C16.0173 32.3636 15.6915 32.4564 15.3885 32.642C15.0893 32.8277 14.8468 33.0852 14.6612 33.4148C14.4794 33.7405 14.3885 34.1174 14.3885 34.5455V40H13.0476ZM31.0675 27.8182L27.3175 41.75H26.0902L29.8402 27.8182H31.0675ZM33.9979 34.75V40H32.657V28.3636H33.9979V32.6364H34.1115C34.3161 32.1856 34.6229 31.8277 35.032 31.5625C35.4448 31.2936 35.9941 31.1591 36.6797 31.1591C37.2744 31.1591 37.7952 31.2784 38.2422 31.517C38.6892 31.7519 39.0357 32.1136 39.282 32.6023C39.532 33.0871 39.657 33.7045 39.657 34.4545V40H38.3161V34.5455C38.3161 33.8523 38.1361 33.3163 37.7763 32.9375C37.4202 32.5549 36.9259 32.3636 36.2933 32.3636C35.8539 32.3636 35.46 32.4564 35.1115 32.642C34.7668 32.8277 34.4941 33.0985 34.2933 33.4545C34.0964 33.8106 33.9979 34.2424 33.9979 34.75Z" fill="#B4B4B4"/>
</svg>
