<svg width="53" height="42" viewBox="0 0 53 42" fill="none" xmlns="http://www.w3.org/2000/svg">
<path d="M6.625 18H20.9792C22.0711 18 23.1385 17.6701 24.0463 17.052C24.9542 16.4339 25.6619 15.5554 26.0798 14.5276C26.4976 13.4997 26.6069 12.3688 26.394 11.2776C26.1809 10.1865 25.6551 9.18421 24.8831 8.39752C24.1108 7.61085 23.1272 7.07512 22.0562 6.85809C20.9853 6.64103 19.8752 6.75243 18.8664 7.17817C17.8576 7.60392 16.9954 8.32489 16.3888 9.24993C15.7821 10.1749 15.4583 11.2625 15.4583 12.375V13.1782" stroke="#B4B4B4" stroke-width="1.5" stroke-linecap="round"/>
<path d="M4.41667 24.75H40.8542C42.3828 24.75 43.8772 24.2881 45.1483 23.4227C46.4194 22.5576 47.41 21.3276 47.995 19.8886C48.58 18.4497 48.7331 16.8663 48.4347 15.3387C48.1366 13.8111 47.4005 12.4079 46.3196 11.3065C45.2386 10.2052 43.8613 9.45517 42.362 9.15131C40.8628 8.84745 39.3086 9.00342 37.8963 9.59944C36.4841 10.1955 35.2768 11.2048 34.4277 12.4999C33.5784 13.7949 33.125 15.3175 33.125 16.875V18" stroke="#B4B4B4" stroke-width="1.5" stroke-linecap="round"/>
<path d="M5.16477 36.8182L5.14205 35.1591H5.41477L9.23295 31.2727H10.892L6.82386 35.3864H6.71023L5.16477 36.8182ZM3.91477 40V28.3636H5.25568V40H3.91477ZM9.46023 40L6.05114 35.6818L7.00568 34.75L11.1648 40H9.46023ZM13.9588 34.75V40H12.6179V31.2727H13.9134V32.6364H14.027C14.2315 32.1932 14.5421 31.8371 14.9588 31.5682C15.3755 31.2955 15.9134 31.1591 16.5724 31.1591C17.1634 31.1591 17.6804 31.2803 18.1236 31.5227C18.5668 31.7614 18.9115 32.125 19.1577 32.6136C19.4039 33.0985 19.527 33.7121 19.527 34.4545V40H18.1861V34.5455C18.1861 33.8598 18.008 33.3258 17.652 32.9432C17.2959 32.5568 16.8073 32.3636 16.1861 32.3636C15.758 32.3636 15.3755 32.4564 15.0384 32.642C14.705 32.8277 14.4418 33.0985 14.2486 33.4545C14.0554 33.8106 13.9588 34.2424 13.9588 34.75ZM25.5227 40.1818C24.7348 40.1818 24.0436 39.9943 23.4489 39.6193C22.858 39.2443 22.3958 38.7197 22.0625 38.0455C21.733 37.3712 21.5682 36.5833 21.5682 35.6818C21.5682 34.7727 21.733 33.9792 22.0625 33.3011C22.3958 32.6231 22.858 32.0966 23.4489 31.7216C24.0436 31.3466 24.7348 31.1591 25.5227 31.1591C26.3106 31.1591 27 31.3466 27.5909 31.7216C28.1856 32.0966 28.6477 32.6231 28.9773 33.3011C29.3106 33.9792 29.4773 34.7727 29.4773 35.6818C29.4773 36.5833 29.3106 37.3712 28.9773 38.0455C28.6477 38.7197 28.1856 39.2443 27.5909 39.6193C27 39.9943 26.3106 40.1818 25.5227 40.1818ZM25.5227 38.9773C26.1212 38.9773 26.6136 38.8239 27 38.517C27.3864 38.2102 27.6723 37.8068 27.858 37.3068C28.0436 36.8068 28.1364 36.2652 28.1364 35.6818C28.1364 35.0985 28.0436 34.5549 27.858 34.0511C27.6723 33.5473 27.3864 33.1402 27 32.8295C26.6136 32.5189 26.1212 32.3636 25.5227 32.3636C24.9242 32.3636 24.4318 32.5189 24.0455 32.8295C23.6591 33.1402 23.3731 33.5473 23.1875 34.0511C23.0019 34.5549 22.9091 35.0985 22.9091 35.6818C22.9091 36.2652 23.0019 36.8068 23.1875 37.3068C23.3731 37.8068 23.6591 38.2102 24.0455 38.517C24.4318 38.8239 24.9242 38.9773 25.5227 38.9773ZM35.3196 31.2727V32.4091H30.7969V31.2727H35.3196ZM32.1151 29.1818H33.456V37.5C33.456 37.8788 33.5109 38.1629 33.6207 38.3523C33.7344 38.5379 33.8783 38.6629 34.0526 38.7273C34.2306 38.7879 34.4181 38.8182 34.6151 38.8182C34.7628 38.8182 34.884 38.8106 34.9787 38.7955C35.0734 38.7765 35.1491 38.7614 35.206 38.75L35.4787 39.9545C35.3878 39.9886 35.2609 40.0227 35.098 40.0568C34.9351 40.0947 34.7287 40.1136 34.4787 40.1136C34.0999 40.1136 33.7287 40.0322 33.3651 39.8693C33.0052 39.7064 32.706 39.4583 32.4673 39.125C32.2325 38.7917 32.1151 38.3712 32.1151 37.8636V29.1818ZM43.3622 33.2273L42.1577 33.5682C42.0819 33.3674 41.9702 33.1723 41.8224 32.983C41.6785 32.7898 41.4815 32.6307 41.2315 32.5057C40.9815 32.3807 40.6615 32.3182 40.2713 32.3182C39.7372 32.3182 39.2921 32.4413 38.9361 32.6875C38.5838 32.9299 38.4077 33.2386 38.4077 33.6136C38.4077 33.947 38.5289 34.2102 38.7713 34.4034C39.0137 34.5966 39.3925 34.7576 39.9077 34.8864L41.2031 35.2045C41.9834 35.3939 42.5649 35.6837 42.9474 36.0739C43.33 36.4602 43.5213 36.9583 43.5213 37.5682C43.5213 38.0682 43.3774 38.5152 43.0895 38.9091C42.8054 39.303 42.4077 39.6136 41.8963 39.8409C41.3849 40.0682 40.7902 40.1818 40.1122 40.1818C39.2221 40.1818 38.4853 39.9886 37.902 39.6023C37.3187 39.2159 36.9493 38.6515 36.794 37.9091L38.0668 37.5909C38.188 38.0606 38.4171 38.4129 38.7543 38.6477C39.0952 38.8826 39.5402 39 40.0895 39C40.7145 39 41.2107 38.8674 41.5781 38.6023C41.9493 38.3333 42.1349 38.0114 42.1349 37.6364C42.1349 37.3333 42.0289 37.0795 41.8168 36.875C41.6046 36.6667 41.2789 36.5114 40.8395 36.4091L39.3849 36.0682C38.5857 35.8788 37.9986 35.5852 37.6236 35.1875C37.2524 34.786 37.0668 34.2841 37.0668 33.6818C37.0668 33.1894 37.205 32.7538 37.4815 32.375C37.7618 31.9962 38.1425 31.6989 38.6236 31.483C39.1084 31.267 39.6577 31.1591 40.2713 31.1591C41.1349 31.1591 41.813 31.3485 42.3054 31.7273C42.8016 32.1061 43.1539 32.6061 43.3622 33.2273Z" fill="#B4B4B4"/>
</svg>
