<svg width="53" height="42" viewBox="0 0 53 42" fill="none" xmlns="http://www.w3.org/2000/svg"> <path d="M6.625 18H20.9792C22.0711 18 23.1385 17.6701 24.0463 17.052C24.9542 16.4339 25.6619 15.5554 26.0798 14.5276C26.4976 13.4998 26.6069 12.3688 26.394 11.2776C26.1809 10.1865 25.6551 9.18421 24.8831 8.39752C24.1108 7.61085 23.1272 7.07513 22.0562 6.85809C20.9853 6.64103 19.8752 6.75243 18.8664 7.17818C17.8576 7.60392 16.9954 8.32489 16.3888 9.24993C15.7821 10.175 15.4583 11.2625 15.4583 12.375V13.1783" stroke="#B4B4B4" stroke-width="1.5" stroke-linecap="round"/> <path d="M4.41667 24.75H40.8542C42.3828 24.75 43.8772 24.2881 45.1483 23.4227C46.4194 22.5576 47.41 21.3276 47.995 19.8886C48.58 18.4497 48.7331 16.8663 48.4347 15.3387C48.1366 13.8111 47.4005 12.4079 46.3196 11.3065C45.2386 10.2052 43.8613 9.45517 42.362 9.15131C40.8628 8.84745 39.3086 9.00342 37.8963 9.59944C36.4841 10.1955 35.2768 11.2048 34.4277 12.4999C33.5784 13.7949 33.125 15.3175 33.125 16.875V18" stroke="#B4B4B4" stroke-width="1.5" stroke-linecap="round"/> <path d="M5.2429 40V31.2727H6.53835V32.6364H6.65199C6.83381 32.1705 7.12737 31.8087 7.53267 31.5511C7.93797 31.2898 8.42472 31.1591 8.9929 31.1591C9.56866 31.1591 10.0478 31.2898 10.4304 31.5511C10.8168 31.8087 11.1179 32.1705 11.3338 32.6364H11.4247C11.6482 32.1856 11.9834 31.8277 12.4304 31.5625C12.8774 31.2936 13.4134 31.1591 14.0384 31.1591C14.8187 31.1591 15.4569 31.4034 15.9531 31.892C16.4493 32.3769 16.6974 33.1326 16.6974 34.1591V40H15.3565V34.1591C15.3565 33.5152 15.1804 33.0549 14.8281 32.7784C14.4759 32.5019 14.0611 32.3636 13.5838 32.3636C12.9702 32.3636 12.4948 32.5492 12.1577 32.9205C11.8205 33.2879 11.652 33.7538 11.652 34.3182V40H10.2884V34.0227C10.2884 33.5265 10.1274 33.1269 9.8054 32.8239C9.48343 32.517 9.06866 32.3636 8.56108 32.3636C8.21259 32.3636 7.88684 32.4564 7.58381 32.642C7.28456 32.8277 7.04214 33.0852 6.85653 33.4148C6.67472 33.7405 6.58381 34.1174 6.58381 34.5455V40H5.2429ZM23.2628 27.8182L19.5128 41.75H18.2855L22.0355 27.8182H23.2628ZM31.0341 33.2273L29.8295 33.5682C29.7538 33.3674 29.642 33.1723 29.4943 32.983C29.3504 32.7898 29.1534 32.6307 28.9034 32.5057C28.6534 32.3807 28.3333 32.3182 27.9432 32.3182C27.4091 32.3182 26.964 32.4413 26.608 32.6875C26.2557 32.9299 26.0795 33.2386 26.0795 33.6136C26.0795 33.947 26.2008 34.2102 26.4432 34.4034C26.6856 34.5966 27.0644 34.7576 27.5795 34.8864L28.875 35.2045C29.6553 35.3939 30.2367 35.6837 30.6193 36.0739C31.0019 36.4602 31.1932 36.9583 31.1932 37.5682C31.1932 38.0682 31.0492 38.5152 30.7614 38.9091C30.4773 39.303 30.0795 39.6136 29.5682 39.8409C29.0568 40.0682 28.4621 40.1818 27.7841 40.1818C26.8939 40.1818 26.1572 39.9886 25.5739 39.6023C24.9905 39.2159 24.6212 38.6515 24.4659 37.9091L25.7386 37.5909C25.8598 38.0606 26.089 38.4129 26.4261 38.6477C26.767 38.8826 27.2121 39 27.7614 39C28.3864 39 28.8826 38.8674 29.25 38.6023C29.6212 38.3333 29.8068 38.0114 29.8068 37.6364C29.8068 37.3333 29.7008 37.0795 29.4886 36.875C29.2765 36.6667 28.9508 36.5114 28.5114 36.4091L27.0568 36.0682C26.2576 35.8788 25.6705 35.5852 25.2955 35.1875C24.9242 34.786 24.7386 34.2841 24.7386 33.6818C24.7386 33.1894 24.8769 32.7538 25.1534 32.375C25.4337 31.9962 25.8144 31.6989 26.2955 31.483C26.7803 31.267 27.3295 31.1591 27.9432 31.1591C28.8068 31.1591 29.4848 31.3485 29.9773 31.7273C30.4735 32.1061 30.8258 32.6061 31.0341 33.2273Z" fill="#B4B4B4"/> </svg>