<svg width="53" height="44" viewBox="0 0 53 44" fill="none" xmlns="http://www.w3.org/2000/svg">
<path d="M6.625 18H20.9792C22.0711 18 23.1385 17.6701 24.0463 17.052C24.9542 16.4339 25.6619 15.5554 26.0798 14.5276C26.4976 13.4997 26.6069 12.3688 26.394 11.2776C26.1809 10.1865 25.6551 9.18421 24.8831 8.39752C24.1108 7.61085 23.1272 7.07512 22.0562 6.85809C20.9853 6.64103 19.8752 6.75243 18.8664 7.17817C17.8576 7.60392 16.9954 8.32489 16.3888 9.24993C15.7821 10.1749 15.4583 11.2625 15.4583 12.375V13.1782" stroke="#B4B4B4" stroke-width="1.5" stroke-linecap="round"/>
<path d="M4.41667 24.75H40.8542C42.3828 24.75 43.8772 24.2881 45.1483 23.4227C46.4194 22.5576 47.41 21.3276 47.995 19.8886C48.58 18.4497 48.7331 16.8663 48.4347 15.3387C48.1366 13.8111 47.4005 12.4079 46.3196 11.3065C45.2386 10.2052 43.8613 9.45517 42.362 9.15131C40.8628 8.84745 39.3086 9.00342 37.8963 9.59944C36.4841 10.1955 35.2768 11.2048 34.4277 12.4999C33.5784 13.7949 33.125 15.3175 33.125 16.875V18" stroke="#B4B4B4" stroke-width="1.5" stroke-linecap="round"/>
<path d="M4.17259 40V31.2727H5.46804V32.6364H5.58168C5.76349 32.1705 6.05705 31.8087 6.46236 31.5511C6.86766 31.2898 7.3544 31.1591 7.92259 31.1591C8.49834 31.1591 8.97751 31.2898 9.36009 31.5511C9.74645 31.8087 10.0476 32.1705 10.2635 32.6364H10.3544C10.5779 32.1856 10.9131 31.8277 11.3601 31.5625C11.8071 31.2936 12.343 31.1591 12.968 31.1591C13.7483 31.1591 14.3866 31.4034 14.8828 31.892C15.379 32.3769 15.6271 33.1326 15.6271 34.1591V40H14.2862V34.1591C14.2862 33.5152 14.1101 33.0549 13.7578 32.7784C13.4055 32.5019 12.9908 32.3636 12.5135 32.3636C11.8999 32.3636 11.4245 32.5492 11.0874 32.9205C10.7502 33.2879 10.5817 33.7538 10.5817 34.3182V40H9.21804V34.0227C9.21804 33.5265 9.05706 33.1269 8.73509 32.8239C8.41312 32.517 7.99834 32.3636 7.49077 32.3636C7.14228 32.3636 6.81652 32.4564 6.51349 32.642C6.21425 32.8277 5.97183 33.0852 5.78622 33.4148C5.6044 33.7405 5.51349 34.1174 5.51349 34.5455V40H4.17259ZM18.0788 43.2727V31.2727H19.3743V32.6591H19.5334C19.6319 32.5076 19.7682 32.3144 19.9425 32.0795C20.1205 31.8409 20.3743 31.6288 20.7038 31.4432C21.0372 31.2538 21.4879 31.1591 22.0561 31.1591C22.791 31.1591 23.4387 31.3428 23.9993 31.7102C24.5599 32.0777 24.9974 32.5985 25.3118 33.2727C25.6262 33.947 25.7834 34.7424 25.7834 35.6591C25.7834 36.5833 25.6262 37.3845 25.3118 38.0625C24.9974 38.7367 24.5618 39.2595 24.005 39.6307C23.4482 39.9981 22.8061 40.1818 22.0788 40.1818C21.5182 40.1818 21.0694 40.089 20.7322 39.9034C20.3951 39.714 20.1357 39.5 19.9538 39.2614C19.772 39.0189 19.6319 38.8182 19.5334 38.6591H19.4197V43.2727H18.0788ZM19.397 35.6364C19.397 36.2955 19.4936 36.8769 19.6868 37.3807C19.88 37.8807 20.1622 38.2727 20.5334 38.5568C20.9046 38.8371 21.3591 38.9773 21.897 38.9773C22.4576 38.9773 22.9254 38.8295 23.3004 38.5341C23.6792 38.2348 23.9633 37.8333 24.1527 37.3295C24.3459 36.822 24.4425 36.2576 24.4425 35.6364C24.4425 35.0227 24.3478 34.4697 24.1584 33.9773C23.9728 33.4811 23.6906 33.089 23.3118 32.8011C22.9368 32.5095 22.4652 32.3636 21.897 32.3636C21.3516 32.3636 20.8932 32.5019 20.522 32.7784C20.1508 33.0511 19.8705 33.4337 19.6811 33.9261C19.4917 34.4148 19.397 34.9848 19.397 35.6364ZM29.1697 34.75V40H27.8288V28.3636H29.1697V32.6364H29.2834C29.4879 32.1856 29.7947 31.8277 30.2038 31.5625C30.6167 31.2936 31.166 31.1591 31.8516 31.1591C32.4463 31.1591 32.9671 31.2784 33.4141 31.517C33.861 31.7519 34.2076 32.1136 34.4538 32.6023C34.7038 33.0871 34.8288 33.7045 34.8288 34.4545V40H33.4879V34.5455C33.4879 33.8523 33.308 33.3163 32.9482 32.9375C32.5921 32.5549 32.0978 32.3636 31.4652 32.3636C31.0258 32.3636 30.6319 32.4564 30.2834 32.642C29.9387 32.8277 29.666 33.0985 29.4652 33.4545C29.2682 33.8106 29.1697 34.2424 29.1697 34.75Z" fill="#B4B4B4"/>
</svg>
