<svg width="100" height="100" viewBox="0 0 24 24" fill="none" xmlns="http://w3.org">
  <circle cx="12" cy="12" r="10" stroke="#FFFFFF" stroke-width="1.2"/>
  <path d="M12 2v2M12 20v2M2 12h2M20 12h2M4.9 4.9l1.4 1.4M17.7 17.7l1.4 1.4M4.9 19.1l1.4-1.4M17.7 6.3l1.4-1.4" stroke="#FFFFFF" stroke-width="0.8" opacity="0.5"/>
  <text x="12" y="7" text-anchor="middle" fill="#FFFFFF" font-family="Arial, sans-serif" font-size="3.2" font-weight="bold">N</text>
  <text x="12" y="19.2" text-anchor="middle" fill="#FFFFFF" font-family="Arial, sans-serif" font-size="3.2" font-weight="bold">S</text>
  <text x="17.8" y="13.1" text-anchor="middle" fill="#FFFFFF" font-family="Arial, sans-serif" font-size="3.2" font-weight="bold">O</text>
  <text x="6.2" y="13.1" text-anchor="middle" fill="#FFFFFF" font-family="Arial, sans-serif" font-size="3.2" font-weight="bold">W</text>
  <g transform="rotate(0, 12, 12)">
    <path d="M12 8L10.5 12L12 11L13.5 12L12 8Z" fill="#FF4D4D"/>
    <path d="M12 16L10.5 12L12 13L13.5 12L12 16Z" fill="#FFFFFF"/>
  </g>
</svg>